<?xml version="1.0" standalone="no"?><!DOCTYPE svg PUBLIC "-//W3C//DTD SVG 1.1//EN" "http://www.w3.org/Graphics/SVG/1.1/DTD/svg11.dtd"><svg t="1604911621406" class="icon" viewBox="0 0 1024 1024" version="1.1" xmlns="http://www.w3.org/2000/svg" p-id="3039" xmlns:xlink="http://www.w3.org/1999/xlink" width="200" height="200"><defs><style type="text/css"></style></defs><path d="M798.386532 434.840666c0 90.322122-32.875059 173.048241-87.325366 236.740866 0 0 195.358181 195.621353 232.072842 231.577263 30.171373 29.522384-4.434167 75.370595-43.419638 33.901111-23.467419-24.980951-228.233239-225.844701-228.233239-225.844701-63.803709 54.933123-146.802359 88.132246-237.587665 88.132246-201.30588 0-364.492043-163.235758-364.492043-364.506784 0-201.271026 163.186162-364.477109 364.492043-364.477109C635.200369 70.363558 798.386532 233.56964 798.386532 434.840666zM433.893466 128.136356c-169.349788 0-306.69027 137.333832-306.69027 306.676681 0 169.398108 137.340482 306.732963 306.69027 306.732963 169.404026 0 306.744508-137.334855 306.744508-306.732963C740.637974 265.470187 603.297491 128.136356 433.893466 128.136356z" p-id="3040"></path></svg>